<svg width="480" height="54" viewBox="0 0 480 54" fill="none" xmlns="http://www.w3.org/2000/svg">
<g clip-path="url(#clip0_428_10507)">
<rect width="480" height="54" rx="8" fill="white"/>
<rect x="426" width="54" height="54" fill="white"/>
<g clip-path="url(#clip1_428_10507)">
<rect width="24" height="24" transform="translate(441 15)" fill="white"/>
<path d="M449.59 31.59L454.17 27L449.59 22.41L451 21L457 27L451 33L449.59 31.59Z" fill="#1E1E1E"/>
</g>
<rect width="54" height="54" fill="white"/>
<g clip-path="url(#clip2_428_10507)">
<rect width="24" height="24" transform="translate(15 15)" fill="white"/>
<path d="M30.41 31.59L25.83 27L30.41 22.41L29 21L23 27L29 33L30.41 31.59Z" fill="#1E1E1E"/>
</g>
<rect x="54.5" y="2.46094" width="49" height="49" rx="7.5" fill="white" stroke="#0D63F3"/>
<path d="M81.2951 32H79.6391V21.596C78.9791 22.424 78.0791 22.982 76.9391 23.27V21.74C77.6351 21.584 78.2471 21.26 78.7751 20.768C79.3151 20.276 79.6811 19.688 79.8731 19.004H81.2951V32Z" fill="#0D63F3"/>
<path d="M139.761 32H130.311V31.73C130.311 30.086 131.253 28.634 133.137 27.374L135.567 25.754C136.407 25.19 137.001 24.674 137.349 24.206C137.697 23.738 137.871 23.228 137.871 22.676C137.871 21.92 137.619 21.32 137.115 20.876C136.611 20.42 135.957 20.192 135.153 20.192C134.289 20.192 133.569 20.48 132.993 21.056C132.429 21.632 132.123 22.394 132.075 23.342L130.455 22.568C130.635 21.404 131.157 20.474 132.021 19.778C132.885 19.07 133.941 18.716 135.189 18.716C136.473 18.716 137.517 19.076 138.321 19.796C139.137 20.504 139.545 21.44 139.545 22.604C139.545 24.164 138.603 25.574 136.719 26.834L134.325 28.4C133.257 29.06 132.675 29.756 132.579 30.488H139.761V32Z" fill="#1E1E1E"/>
<path d="M193.741 28.364C193.741 29.456 193.279 30.38 192.355 31.136C191.431 31.88 190.279 32.252 188.899 32.252C187.459 32.252 186.283 31.862 185.371 31.082C184.459 30.302 183.967 29.3 183.895 28.076L185.515 27.446C185.491 28.418 185.779 29.216 186.379 29.84C186.991 30.464 187.825 30.776 188.881 30.776C189.793 30.776 190.543 30.548 191.131 30.092C191.719 29.636 192.013 29.03 192.013 28.274C192.013 27.506 191.725 26.906 191.149 26.474C190.573 26.042 189.763 25.826 188.719 25.826H188.143V24.422H188.719C189.655 24.422 190.393 24.23 190.933 23.846C191.473 23.45 191.743 22.934 191.743 22.298C191.743 21.65 191.485 21.134 190.969 20.75C190.453 20.366 189.781 20.174 188.953 20.174C188.065 20.174 187.333 20.432 186.757 20.948C186.181 21.464 185.881 22.124 185.857 22.928L184.237 22.37C184.345 21.29 184.837 20.414 185.713 19.742C186.601 19.058 187.705 18.716 189.025 18.716C190.297 18.716 191.347 19.028 192.175 19.652C193.015 20.264 193.435 21.062 193.435 22.046C193.435 22.766 193.213 23.396 192.769 23.936C192.325 24.476 191.713 24.854 190.933 25.07C191.821 25.286 192.511 25.688 193.003 26.276C193.495 26.864 193.741 27.56 193.741 28.364Z" fill="#1E1E1E"/>
<path d="M238.595 33.0909C238.315 33.0909 238.074 32.9905 237.874 32.7898C237.673 32.589 237.572 32.3485 237.572 32.0682C237.572 31.7879 237.673 31.5473 237.874 31.3466C238.074 31.1458 238.315 31.0455 238.595 31.0455C238.875 31.0455 239.116 31.1458 239.317 31.3466C239.518 31.5473 239.618 31.7879 239.618 32.0682C239.618 32.2538 239.571 32.4242 239.476 32.5795C239.385 32.7348 239.262 32.8598 239.107 32.9545C238.955 33.0455 238.785 33.0909 238.595 33.0909ZM243.001 33.0909C242.721 33.0909 242.481 32.9905 242.28 32.7898C242.079 32.589 241.979 32.3485 241.979 32.0682C241.979 31.7879 242.079 31.5473 242.28 31.3466C242.481 31.1458 242.721 31.0455 243.001 31.0455C243.282 31.0455 243.522 31.1458 243.723 31.3466C243.924 31.5473 244.024 31.7879 244.024 32.0682C244.024 32.2538 243.977 32.4242 243.882 32.5795C243.791 32.7348 243.668 32.8598 243.513 32.9545C243.361 33.0455 243.191 33.0909 243.001 33.0909ZM247.408 33.0909C247.127 33.0909 246.887 32.9905 246.686 32.7898C246.485 32.589 246.385 32.3485 246.385 32.0682C246.385 31.7879 246.485 31.5473 246.686 31.3466C246.887 31.1458 247.127 31.0455 247.408 31.0455C247.688 31.0455 247.929 31.1458 248.129 31.3466C248.33 31.5473 248.43 31.7879 248.43 32.0682C248.43 32.2538 248.383 32.4242 248.288 32.5795C248.197 32.7348 248.074 32.8598 247.919 32.9545C247.768 33.0455 247.597 33.0909 247.408 33.0909Z" fill="#1E1E1E"/>
<path d="M297.418 32.332H295.762C296.026 29.848 296.482 27.676 297.13 25.816C297.778 23.956 298.684 22.288 299.848 20.812H292.828V19.336H302.098V20.326C300.658 21.898 299.572 23.626 298.84 25.51C298.12 27.394 297.646 29.668 297.418 32.332Z" fill="#1E1E1E"/>
<path d="M355.896 28.678C355.896 29.83 355.434 30.772 354.51 31.504C353.598 32.224 352.428 32.584 351 32.584C349.572 32.584 348.396 32.224 347.472 31.504C346.56 30.772 346.104 29.83 346.104 28.678C346.104 27.886 346.338 27.196 346.806 26.608C347.274 26.02 347.94 25.582 348.804 25.294C348.132 24.994 347.604 24.586 347.22 24.07C346.836 23.542 346.644 22.96 346.644 22.324C346.644 21.352 347.052 20.56 347.868 19.948C348.684 19.336 349.728 19.03 351 19.03C352.272 19.03 353.316 19.336 354.132 19.948C354.96 20.56 355.374 21.352 355.374 22.324C355.374 22.96 355.182 23.542 354.798 24.07C354.414 24.586 353.88 24.994 353.196 25.294C354.06 25.582 354.726 26.02 355.194 26.608C355.662 27.196 355.896 27.886 355.896 28.678ZM349.038 21.064C348.546 21.436 348.3 21.928 348.3 22.54C348.3 23.152 348.546 23.644 349.038 24.016C349.53 24.376 350.184 24.556 351 24.556C351.816 24.556 352.47 24.376 352.962 24.016C353.454 23.644 353.7 23.152 353.7 22.54C353.7 21.928 353.448 21.436 352.944 21.064C352.452 20.692 351.804 20.506 351 20.506C350.196 20.506 349.542 20.692 349.038 21.064ZM348.642 26.716C348.054 27.172 347.76 27.778 347.76 28.534C347.76 29.29 348.054 29.908 348.642 30.388C349.242 30.868 350.028 31.108 351 31.108C351.972 31.108 352.752 30.868 353.34 30.388C353.94 29.908 354.24 29.29 354.24 28.534C354.24 27.778 353.94 27.172 353.34 26.716C352.752 26.248 351.972 26.014 351 26.014C350.028 26.014 349.242 26.248 348.642 26.716Z" fill="#1E1E1E"/>
<path d="M409.841 24.71C409.841 27.014 409.325 28.85 408.293 30.218C407.273 31.574 405.887 32.252 404.135 32.252C403.379 32.252 402.653 32.114 401.957 31.838C401.273 31.55 400.763 31.178 400.427 30.722L401.201 29.174C401.453 29.666 401.855 30.056 402.407 30.344C402.971 30.632 403.583 30.776 404.243 30.776C405.359 30.776 406.259 30.356 406.943 29.516C407.639 28.676 408.023 27.5 408.095 25.988C407.255 27.224 406.061 27.842 404.513 27.842C403.181 27.842 402.101 27.428 401.273 26.6C400.457 25.772 400.049 24.71 400.049 23.414C400.049 22.058 400.493 20.936 401.381 20.048C402.281 19.16 403.463 18.716 404.927 18.716C405.587 18.716 406.199 18.824 406.763 19.04C407.327 19.244 407.843 19.568 408.311 20.012C408.791 20.456 409.163 21.08 409.427 21.884C409.703 22.676 409.841 23.618 409.841 24.71ZM401.705 23.396C401.705 24.332 401.993 25.094 402.569 25.682C403.145 26.27 403.901 26.564 404.837 26.564C405.773 26.564 406.541 26.264 407.141 25.664C407.753 25.064 408.059 24.296 408.059 23.36C408.059 22.424 407.765 21.662 407.177 21.074C406.589 20.474 405.821 20.174 404.873 20.174C403.937 20.174 403.175 20.474 402.587 21.074C401.999 21.674 401.705 22.448 401.705 23.396Z" fill="#1E1E1E"/>
</g>
<defs>
<clipPath id="clip0_428_10507">
<rect width="480" height="54" rx="8" fill="white"/>
</clipPath>
<clipPath id="clip1_428_10507">
<rect width="24" height="24" fill="white" transform="translate(441 15)"/>
</clipPath>
<clipPath id="clip2_428_10507">
<rect width="24" height="24" fill="white" transform="translate(15 15)"/>
</clipPath>
</defs>
</svg>
